STARTFONT   2.1
FONT -infocom-Zork-medium-r-normal--11-110-72-72-c-70-misc-fontspecific
SIZE  11  96   96
FONTBOUNDINGBOX 7  11  0  -1
STARTPROPERTIES  4
FONT_ASCENT 10
FONT_DESCENT 1
CAP_HEIGHT 10
DEFAULT_CHAR 8224
ENDPROPERTIES
CHARS  96
STARTCHAR 0
ENCODING 32
SWIDTH    7000    0
DWIDTH    7    0
BBX  7  11  0   -1
BITMAP
00
00
00
00
00
00
00
00
00
00
00
ENDCHAR
STARTCHAR 1
ENCODING 33
SWIDTH    7000    0
DWIDTH    7    0
BBX  7  11  0   -1
BITMAP
00
00
00
20
60
FE
60
20
00
00
00
ENDCHAR
STARTCHAR 2
ENCODING 34
SWIDTH    7000    0
DWIDTH    7    0
BBX  7  11  0   -1
BITMAP
00
00
00
08
0C
FE
0C
08
00
00
00
ENDCHAR
STARTCHAR 3
ENCODING 35
SWIDTH    7000    0
DWIDTH    7    0
BBX  7  11  0   -1
BITMAP
02
04
04
08
08
10
20
20
40
40
80
ENDCHAR
STARTCHAR 4
ENCODING 36
SWIDTH    7000    0
DWIDTH    7    0
BBX  7  11  0   -1
BITMAP
80
40
40
20
20
10
08
08
04
04
02
ENDCHAR
STARTCHAR 5
ENCODING 37
SWIDTH    7000    0
DWIDTH    7    0
BBX  7  11  0   -1
BITMAP
00
00
00
00
00
00
00
00
00
00
00
ENDCHAR
STARTCHAR 6
ENCODING 38
SWIDTH    7000    0
DWIDTH    7    0
BBX  7  11  0   -1
BITMAP
00
00
00
00
00
FE
00
00
00
00
00
ENDCHAR
STARTCHAR 7
ENCODING 39
SWIDTH    7000    0
DWIDTH    7    0
BBX  7  11  0   -1
BITMAP
00
00
00
00
FE
00
00
00
00
00
00
ENDCHAR
STARTCHAR 8
ENCODING 40
SWIDTH    7000    0
DWIDTH    7    0
BBX  7  11  0   -1
BITMAP
10
10
10
10
10
10
10
10
10
10
10
ENDCHAR
STARTCHAR 9
ENCODING 41
SWIDTH    7000    0
DWIDTH    7    0
BBX  7  11  0   -1
BITMAP
20
20
20
20
20
20
20
20
20
20
20
ENDCHAR
STARTCHAR 10
ENCODING 42
SWIDTH    7000    0
DWIDTH    7    0
BBX  7  11  0   -1
BITMAP
10
10
10
10
FE
00
00
00
00
00
00
ENDCHAR
STARTCHAR 11
ENCODING 43
SWIDTH    7000    0
DWIDTH    7    0
BBX  7  11  0   -1
BITMAP
00
00
00
00
00
FE
10
10
10
10
10
ENDCHAR
STARTCHAR 12
ENCODING 44
SWIDTH    7000    0
DWIDTH    7    0
BBX  7  11  0   -1
BITMAP
10
10
10
10
10
1E
10
10
10
10
10
ENDCHAR
STARTCHAR 13
ENCODING 45
SWIDTH    7000    0
DWIDTH    7    0
BBX  7  11  0   -1
BITMAP
20
20
20
20
20
E0
20
20
20
20
20
ENDCHAR
STARTCHAR 14
ENCODING 46
SWIDTH    7000    0
DWIDTH    7    0
BBX  7  11  0   -1
BITMAP
20
20
20
20
20
3E
00
00
00
00
00
ENDCHAR
STARTCHAR 15
ENCODING 47
SWIDTH    7000    0
DWIDTH    7    0
BBX  7  11  0   -1
BITMAP
00
00
00
00
3E
20
20
20
20
20
20
ENDCHAR
STARTCHAR 16
ENCODING 48
SWIDTH    7000    0
DWIDTH    7    0
BBX  7  11  0   -1
BITMAP
00
00
00
00
F0
10
10
10
10
10
10
ENDCHAR
STARTCHAR 17
ENCODING 49
SWIDTH    7000    0
DWIDTH    7    0
BBX  7  11  0   -1
BITMAP
10
10
10
10
10
F0
00
00
00
00
00
ENDCHAR
STARTCHAR 18
ENCODING 50
SWIDTH    7000    0
DWIDTH    7    0
BBX  7  11  0   -1
BITMAP
20
20
20
20
20
3E
20
40
40
80
80
ENDCHAR
STARTCHAR 19
ENCODING 51
SWIDTH    7000    0
DWIDTH    7    0
BBX  7  11  0   -1
BITMAP
80
80
40
40
3E
20
20
20
20
20
20
ENDCHAR
STARTCHAR 20
ENCODING 52
SWIDTH    7000    0
DWIDTH    7    0
BBX  7  11  0   -1
BITMAP
02
04
04
08
F0
10
10
10
10
10
10
ENDCHAR
STARTCHAR 21
ENCODING 53
SWIDTH    7000    0
DWIDTH    7    0
BBX  7  11  0   -1
BITMAP
10
10
10
10
10
F0
08
08
04
04
02
ENDCHAR
STARTCHAR 22
ENCODING 54
SWIDTH    7000    0
DWIDTH    7    0
BBX  7  11  0   -1
BITMAP
FE
FE
FE
FE
FE
FE
FE
FE
FE
FE
FE
ENDCHAR
STARTCHAR 23
ENCODING 55
SWIDTH    7000    0
DWIDTH    7    0
BBX  7  11  0   -1
BITMAP
FE
FE
FE
FE
FE
FE
00
00
00
00
00
ENDCHAR
STARTCHAR 24
ENCODING 56
SWIDTH    7000    0
DWIDTH    7    0
BBX  7  11  0   -1
BITMAP
00
00
00
00
FE
FE
FE
FE
FE
FE
FE
ENDCHAR
STARTCHAR 25
ENCODING 57
SWIDTH    7000    0
DWIDTH    7    0
BBX  7  11  0   -1
BITMAP
F0
F0
F0
F0
F0
F0
F0
F0
F0
F0
F0
ENDCHAR
STARTCHAR 26
ENCODING 58
SWIDTH    7000    0
DWIDTH    7    0
BBX  7  11  0   -1
BITMAP
3E
3E
3E
3E
3E
3E
3E
3E
3E
3E
3E
ENDCHAR
STARTCHAR 27
ENCODING 59
SWIDTH    7000    0
DWIDTH    7    0
BBX  7  11  0   -1
BITMAP
10
10
10
10
FE
FE
FE
FE
FE
FE
FE
ENDCHAR
STARTCHAR 28
ENCODING 60
SWIDTH    7000    0
DWIDTH    7    0
BBX  7  11  0   -1
BITMAP
FE
FE
FE
FE
FE
FE
10
10
10
10
10
ENDCHAR
STARTCHAR 29
ENCODING 61
SWIDTH    7000    0
DWIDTH    7    0
BBX  7  11  0   -1
BITMAP
F0
F0
F0
F0
F0
FE
F0
F0
F0
F0
F0
ENDCHAR
STARTCHAR 30
ENCODING 62
SWIDTH    7000    0
DWIDTH    7    0
BBX  7  11  0   -1
BITMAP
3E
3E
3E
3E
3E
FE
3E
3E
3E
3E
3E
ENDCHAR
STARTCHAR 31
ENCODING 63
SWIDTH    7000    0
DWIDTH    7    0
BBX  7  11  0   -1
BITMAP
3E
3E
3E
3E
3E
3E
00
00
00
00
00
ENDCHAR
STARTCHAR 32
ENCODING 64
SWIDTH    7000    0
DWIDTH    7    0
BBX  7  11  0   -1
BITMAP
00
00
00
00
3E
3E
3E
3E
3E
3E
3E
ENDCHAR
STARTCHAR 33
ENCODING 65
SWIDTH    7000    0
DWIDTH    7    0
BBX  7  11  0   -1
BITMAP
00
00
00
00
F0
F0
F0
F0
F0
F0
F0
ENDCHAR
STARTCHAR 34
ENCODING 66
SWIDTH    7000    0
DWIDTH    7    0
BBX  7  11  0   -1
BITMAP
F0
F0
F0
F0
F0
F0
00
00
00
00
00
ENDCHAR
STARTCHAR 35
ENCODING 67
SWIDTH    7000    0
DWIDTH    7    0
BBX  7  11  0   -1
BITMAP
3E
3E
3E
3E
3E
3E
20
40
40
80
80
ENDCHAR
STARTCHAR 36
ENCODING 68
SWIDTH    7000    0
DWIDTH    7    0
BBX  7  11  0   -1
BITMAP
80
80
40
40
3E
3E
3E
3E
3E
3E
3E
ENDCHAR
STARTCHAR 37
ENCODING 69
SWIDTH    7000    0
DWIDTH    7    0
BBX  7  11  0   -1
BITMAP
02
04
04
08
F0
F0
F0
F0
F0
F0
F0
ENDCHAR
STARTCHAR 38
ENCODING 70
SWIDTH    7000    0
DWIDTH    7    0
BBX  7  11  0   -1
BITMAP
F0
F0
F0
F0
F0
F0
08
08
04
02
02
ENDCHAR
STARTCHAR 39
ENCODING 71
SWIDTH    7000    0
DWIDTH    7    0
BBX  7  11  0   -1
BITMAP
02
00
00
00
00
00
00
00
00
00
00
ENDCHAR
STARTCHAR 40
ENCODING 72
SWIDTH    7000    0
DWIDTH    7    0
BBX  7  11  0   -1
BITMAP
00
00
00
00
00
00
00
00
00
00
02
ENDCHAR
STARTCHAR 41
ENCODING 73
SWIDTH    7000    0
DWIDTH    7    0
BBX  7  11  0   -1
BITMAP
00
00
00
00
00
00
00
00
00
00
80
ENDCHAR
STARTCHAR 42
ENCODING 74
SWIDTH    7000    0
DWIDTH    7    0
BBX  7  11  0   -1
BITMAP
80
00
00
00
00
00
00
00
00
00
00
ENDCHAR
STARTCHAR 43
ENCODING 75
SWIDTH    7000    0
DWIDTH    7    0
BBX  7  11  0   -1
BITMAP
FE
00
00
00
00
00
00
00
00
00
00
ENDCHAR
STARTCHAR 44
ENCODING 76
SWIDTH    7000    0
DWIDTH    7    0
BBX  7  11  0   -1
BITMAP
00
00
00
00
00
00
00
00
00
00
FE
ENDCHAR
STARTCHAR 45
ENCODING 77
SWIDTH    7000    0
DWIDTH    7    0
BBX  7  11  0   -1
BITMAP
80
80
80
80
80
80
80
80
80
80
80
ENDCHAR
STARTCHAR 46
ENCODING 78
SWIDTH    7000    0
DWIDTH    7    0
BBX  7  11  0   -1
BITMAP
02
02
02
02
02
02
02
02
02
02
02
ENDCHAR
STARTCHAR 47
ENCODING 79
SWIDTH    7000    0
DWIDTH    7    0
BBX  7  11  0   -1
BITMAP
00
FE
00
00
00
00
00
00
00
FE
00
ENDCHAR
STARTCHAR 48
ENCODING 80
SWIDTH    7000    0
DWIDTH    7    0
BBX  7  11  0   -1
BITMAP
00
FE
80
80
80
80
80
80
80
FE
00
ENDCHAR
STARTCHAR 49
ENCODING 81
SWIDTH    7000    0
DWIDTH    7    0
BBX  7  11  0   -1
BITMAP
00
FE
C0
C0
C0
C0
C0
C0
C0
FE
00
ENDCHAR
STARTCHAR 50
ENCODING 82
SWIDTH    7000    0
DWIDTH    7    0
BBX  7  11  0   -1
BITMAP
00
FE
E0
E0
E0
E0
E0
E0
E0
FE
00
ENDCHAR
STARTCHAR 51
ENCODING 83
SWIDTH    7000    0
DWIDTH    7    0
BBX  7  11  0   -1
BITMAP
00
FE
E0
E0
E0
E0
E0
E0
E0
FE
00
ENDCHAR
STARTCHAR 52
ENCODING 84
SWIDTH    7000    0
DWIDTH    7    0
BBX  7  11  0   -1
BITMAP
00
FE
F0
F0
F0
F0
F0
F0
F0
FE
00
ENDCHAR
STARTCHAR 53
ENCODING 85
SWIDTH    7000    0
DWIDTH    7    0
BBX  7  11  0   -1
BITMAP
00
FE
F8
F8
F8
F8
F8
F8
F8
FE
00
ENDCHAR
STARTCHAR 54
ENCODING 86
SWIDTH    7000    0
DWIDTH    7    0
BBX  7  11  0   -1
BITMAP
00
FE
FC
FC
FC
FC
FC
FC
FC
FE
00
ENDCHAR
STARTCHAR 55
ENCODING 87
SWIDTH    7000    0
DWIDTH    7    0
BBX  7  11  0   -1
BITMAP
00
FE
FE
FE
FE
FE
FE
FE
FE
FE
00
ENDCHAR
STARTCHAR 56
ENCODING 88
SWIDTH    7000    0
DWIDTH    7    0
BBX  7  11  0   -1
BITMAP
00
02
02
02
02
02
02
02
02
02
00
ENDCHAR
STARTCHAR 57
ENCODING 89
SWIDTH    7000    0
DWIDTH    7    0
BBX  7  11  0   -1
BITMAP
00
80
80
80
80
80
80
80
80
80
00
ENDCHAR
STARTCHAR 58
ENCODING 90
SWIDTH    7000    0
DWIDTH    7    0
BBX  7  11  0   -1
BITMAP
82
44
44
28
28
10
28
28
44
44
82
ENDCHAR
STARTCHAR 59
ENCODING 91
SWIDTH    7000    0
DWIDTH    7    0
BBX  7  11  0   -1
BITMAP
10
10
10
10
10
FE
10
10
10
10
10
ENDCHAR
STARTCHAR 60
ENCODING 92
SWIDTH    7000    0
DWIDTH    7    0
BBX  7  11  0   -1
BITMAP
10
38
7C
10
10
10
10
10
10
10
10
ENDCHAR
STARTCHAR 61
ENCODING 93
SWIDTH    7000    0
DWIDTH    7    0
BBX  7  11  0   -1
BITMAP
10
10
10
10
10
10
10
10
7C
38
10
ENDCHAR
STARTCHAR 62
ENCODING 94
SWIDTH    7000    0
DWIDTH    7    0
BBX  7  11  0   -1
BITMAP
10
38
7C
10
10
10
10
10
7C
38
10
ENDCHAR
STARTCHAR 63
ENCODING 95
SWIDTH    7000    0
DWIDTH    7    0
BBX  7  11  0   -1
BITMAP
FE
82
82
82
82
82
82
82
82
82
FE
ENDCHAR
STARTCHAR 64
ENCODING 96
SWIDTH    7000    0
DWIDTH    7    0
BBX  7  11  0   -1
BITMAP
38
44
04
08
10
10
10
10
00
00
10
ENDCHAR
STARTCHAR 65
ENCODING 97
SWIDTH    7000    0
DWIDTH    7    0
BBX  7  11  0   -1
BITMAP
00
C4
A8
90
80
80
C0
A0
90
80
80
ENDCHAR
STARTCHAR 66
ENCODING 98
SWIDTH    7000    0
DWIDTH    7    0
BBX  7  11  0   -1
BITMAP
00
E0
90
88
84
84
FC
84
88
90
E0
ENDCHAR
STARTCHAR 67
ENCODING 99
SWIDTH    7000    0
DWIDTH    7    0
BBX  7  11  0   -1
BITMAP
00
10
18
14
12
10
10
90
50
30
10
ENDCHAR
STARTCHAR 68
ENCODING 100
SWIDTH    7000    0
DWIDTH    7    0
BBX  7  11  0   -1
BITMAP
00
82
C6
C6
AA
92
92
AA
C6
C6
82
ENDCHAR
STARTCHAR 69
ENCODING 101
SWIDTH    7000    0
DWIDTH    7    0
BBX  7  11  0   -1
BITMAP
00
82
C6
AA
92
82
82
82
82
82
82
ENDCHAR
STARTCHAR 70
ENCODING 102
SWIDTH    7000    0
DWIDTH    7    0
BBX  7  11  0   -1
BITMAP
00
92
A4
C8
90
A0
C0
80
80
80
80
ENDCHAR
STARTCHAR 71
ENCODING 103
SWIDTH    7000    0
DWIDTH    7    0
BBX  7  11  0   -1
BITMAP
00
84
48
48
BC
B4
78
30
48
48
84
ENDCHAR
STARTCHAR 72
ENCODING 104
SWIDTH    7000    0
DWIDTH    7    0
BBX  7  11  0   -1
BITMAP
00
C4
A4
94
94
8C
C4
A4
A4
94
8C
ENDCHAR
STARTCHAR 73
ENCODING 105
SWIDTH    7000    0
DWIDTH    7    0
BBX  7  11  0   -1
BITMAP
00
20
20
20
20
20
20
20
20
20
20
ENDCHAR
STARTCHAR 74
ENCODING 106
SWIDTH    7000    0
DWIDTH    7    0
BBX  7  11  0   -1
BITMAP
00
18
38
34
54
92
56
54
38
38
10
ENDCHAR
STARTCHAR 75
ENCODING 107
SWIDTH    7000    0
DWIDTH    7    0
BBX  7  11  0   -1
BITMAP
00
40
40
40
60
50
50
48
44
44
44
ENDCHAR
STARTCHAR 76
ENCODING 108
SWIDTH    7000    0
DWIDTH    7    0
BBX  7  11  0   -1
BITMAP
00
60
50
48
44
40
40
40
40
40
40
ENDCHAR
STARTCHAR 77
ENCODING 109
SWIDTH    7000    0
DWIDTH    7    0
BBX  7  11  0   -1
BITMAP
00
CC
B4
B4
B4
CC
CC
84
84
84
84
ENDCHAR
STARTCHAR 78
ENCODING 110
SWIDTH    7000    0
DWIDTH    7    0
BBX  7  11  0   -1
BITMAP
00
90
50
50
30
30
10
18
18
14
14
ENDCHAR
STARTCHAR 79
ENCODING 111
SWIDTH    7000    0
DWIDTH    7    0
BBX  7  11  0   -1
BITMAP
00
C6
AA
92
82
C4
A8
90
80
80
80
ENDCHAR
STARTCHAR 80
ENCODING 112
SWIDTH    7000    0
DWIDTH    7    0
BBX  7  11  0   -1
BITMAP
00
40
40
40
40
44
4C
54
54
64
44
ENDCHAR
STARTCHAR 81
ENCODING 113
SWIDTH    7000    0
DWIDTH    7    0
BBX  7  11  0   -1
BITMAP
00
BE
54
10
10
10
10
10
10
10
10
ENDCHAR
STARTCHAR 82
ENCODING 114
SWIDTH    7000    0
DWIDTH    7    0
BBX  7  11  0   -1
BITMAP
00
78
44
44
44
78
48
48
44
44
44
ENDCHAR
STARTCHAR 83
ENCODING 115
SWIDTH    7000    0
DWIDTH    7    0
BBX  7  11  0   -1
BITMAP
00
80
84
8C
94
94
A4
C4
84
04
04
ENDCHAR
STARTCHAR 84
ENCODING 116
SWIDTH    7000    0
DWIDTH    7    0
BBX  7  11  0   -1
BITMAP
00
38
54
92
10
10
10
10
10
10
10
ENDCHAR
STARTCHAR 85
ENCODING 117
SWIDTH    7000    0
DWIDTH    7    0
BBX  7  11  0   -1
BITMAP
00
40
60
50
48
48
48
48
48
48
48
ENDCHAR
STARTCHAR 86
ENCODING 118
SWIDTH    7000    0
DWIDTH    7    0
BBX  7  11  0   -1
BITMAP
00
30
48
48
30
30
30
30
48
48
84
ENDCHAR
STARTCHAR 87
ENCODING 119
SWIDTH    7000    0
DWIDTH    7    0
BBX  7  11  0   -1
BITMAP
00
78
44
44
44
78
40
40
40
40
40
ENDCHAR
STARTCHAR 88
ENCODING 120
SWIDTH    7000    0
DWIDTH    7    0
BBX  7  11  0   -1
BITMAP
00
10
10
38
38
54
54
92
92
92
92
ENDCHAR
STARTCHAR 89
ENCODING 121
SWIDTH    7000    0
DWIDTH    7    0
BBX  7  11  0   -1
BITMAP
00
F0
98
D8
D4
BA
BA
96
92
92
92
ENDCHAR
STARTCHAR 90
ENCODING 122
SWIDTH    7000    0
DWIDTH    7    0
BBX  7  11  0   -1
BITMAP
00
3C
40
80
80
40
40
40
20
20
1C
ENDCHAR
STARTCHAR 91
ENCODING 123
SWIDTH    7000    0
DWIDTH    7    0
BBX  7  11  0   -1
BITMAP
EE
C6
82
EE
EE
EE
EE
EE
EE
EE
EE
ENDCHAR
STARTCHAR 92
ENCODING 124
SWIDTH    7000    0
DWIDTH    7    0
BBX  7  11  0   -1
BITMAP
EE
EE
EE
EE
EE
EE
EE
EE
82
C6
EE
ENDCHAR
STARTCHAR 93
ENCODING 125
SWIDTH    7000    0
DWIDTH    7    0
BBX  7  11  0   -1
BITMAP
EE
C6
82
EE
EE
EE
EE
EE
82
C6
EE
ENDCHAR
STARTCHAR 94
ENCODING 126
SWIDTH    7000    0
DWIDTH    7    0
BBX  7  11  0   -1
BITMAP
C6
BA
FC
FC
FC
FA
F6
EE
EE
FE
EE
ENDCHAR
STARTCHAR 95
ENCODING 127
SWIDTH    7000    0
DWIDTH    7    0
BBX  7  11  0   -1
BITMAP
00
00
00
00
00
00
00
00
00
00
00
ENDCHAR
ENDFONT
